<?xml version="1.0" standalone="no"?>
<!DOCTYPE svg PUBLIC "-//W3C//DTD SVG 20010904//EN"
 "http://www.w3.org/TR/2001/REC-SVG-20010904/DTD/svg10.dtd">
<svg version="1.0" xmlns="http://www.w3.org/2000/svg"
 width="1024.000000pt" height="1024.000000pt" viewBox="0 0 1024.000000 1024.000000"
 preserveAspectRatio="xMidYMid meet">

<g transform="translate(0.000000,1024.000000) scale(0.100000,-0.100000)"
fill="#000000" stroke="none">
<path d="M2620 7001 c0 -13 15 -26 45 -41 56 -27 81 -58 100 -125 14 -45 15
-168 13 -911 -4 -965 0 -918 -78 -1007 -54 -61 -95 -85 -175 -102 -167 -35
-339 50 -442 217 -20 32 -41 57 -46 55 -15 -5 -165 -140 -166 -149 -1 -4 27
-36 62 -71 70 -72 163 -128 275 -165 70 -24 92 -26 247 -27 138 0 182 4 235
19 198 57 335 167 415 331 71 145 68 113 74 1000 6 793 6 800 28 847 20 44 64
82 116 101 9 3 17 16 17 27 0 20 -5 20 -360 20 -348 0 -360 -1 -360 -19z"/>
<path d="M3650 7001 c0 -11 12 -23 30 -31 16 -7 44 -27 62 -45 64 -66 62 -37
68 -845 l6 -735 27 -90 c42 -134 99 -235 184 -325 172 -183 392 -262 728 -262
294 -1 493 59 663 199 97 79 194 237 231 374 37 135 41 225 40 879 -1 349 2
653 6 675 16 84 55 135 133 174 23 12 42 28 42 36 0 13 -38 15 -270 15 -256 0
-270 -1 -270 -18 0 -12 14 -25 40 -37 50 -22 93 -70 111 -122 11 -31 14 -179
14 -768 0 -813 2 -784 -70 -930 -65 -135 -179 -229 -340 -282 -72 -24 -95 -27
-235 -27 -145 -1 -160 1 -235 27 -165 58 -278 154 -346 292 -76 157 -73 117
-77 904 -2 484 1 721 8 757 16 74 46 115 107 144 34 16 53 31 53 43 0 16 -24
17 -355 17 -341 0 -355 -1 -355 -19z"/>
<path d="M6085 7011 c-7 -12 9 -26 60 -54 55 -31 93 -89 105 -162 14 -87 13
-1809 -1 -1876 -14 -63 -65 -124 -127 -150 -86 -37 -54 -44 221 -47 247 -2
257 -2 257 17 0 12 -12 23 -32 32 -56 22 -85 47 -109 96 l-24 48 -3 840 c-1
508 1 836 7 830 5 -6 143 -183 308 -395 165 -212 371 -475 458 -585 163 -206
217 -274 488 -619 87 -111 174 -220 194 -244 l35 -43 97 3 96 3 5 1060 c4 844
8 1066 18 1090 19 42 67 90 113 111 26 11 39 23 37 33 -3 14 -35 16 -261 19
-246 2 -257 2 -257 -16 0 -14 14 -25 45 -36 26 -10 58 -33 75 -54 61 -74 60
-64 58 -879 l-3 -741 -125 161 c-201 260 -945 1205 -1161 1475 l-73 92 -248 0
c-143 0 -249 -4 -253 -9z"/>
<path d="M6890 4159 c-170 -29 -299 -153 -330 -318 -54 -287 121 -501 410
-501 219 0 378 124 421 328 22 109 -7 246 -73 338 -81 115 -265 181 -428 153z
m188 -85 c107 -53 172 -183 172 -343 0 -243 -192 -397 -383 -307 -61 29 -95
67 -135 154 -25 52 -27 68 -27 177 0 108 3 125 26 175 55 117 127 169 235 170
45 0 73 -6 112 -26z"/>
<path d="M1904 4138 c-7 -12 5 -28 21 -28 8 0 21 -10 29 -22 14 -19 16 -69 16
-344 0 -346 1 -338 -52 -357 -10 -4 -18 -11 -18 -17 0 -13 276 -14 284 -1 3 5
-8 14 -25 21 -16 7 -34 21 -39 31 -6 10 -10 150 -10 331 0 340 1 349 55 362
44 11 27 26 -32 28 -138 5 -225 3 -229 -4z"/>
<path d="M2423 4143 c-21 -8 -15 -20 17 -33 58 -24 60 -39 60 -367 0 -324 -1
-333 -56 -353 -52 -20 -23 -30 91 -30 63 0 115 4 115 9 0 5 -16 18 -35 29 -19
12 -37 31 -40 44 -3 13 -4 135 -3 272 l3 250 233 -302 c226 -292 235 -302 268
-302 l34 0 0 344 c0 204 4 355 10 371 6 15 22 30 40 36 16 6 30 14 30 19 0 10
-89 20 -172 19 -75 -1 -93 -19 -35 -35 54 -16 58 -36 55 -293 l-3 -230 -213
279 -214 280 -86 -1 c-48 0 -93 -3 -99 -6z"/>
<path d="M3400 4044 c0 -91 2 -105 14 -95 8 7 17 25 21 40 3 16 19 41 36 57
26 25 39 29 104 32 l75 4 0 -323 c-1 -341 -1 -343 -47 -368 -47 -25 -22 -31
122 -31 146 0 170 7 118 32 -51 24 -53 38 -53 376 l0 312 70 0 c95 0 125 -17
157 -86 13 -30 29 -54 34 -54 5 0 9 47 9 105 l0 105 -330 0 -330 0 0 -106z"/>
<path d="M4270 4138 c1 -7 15 -22 33 -33 l32 -20 3 -315 c1 -173 0 -325 -3
-337 -3 -13 -19 -30 -35 -38 -17 -9 -30 -20 -30 -25 0 -6 101 -10 269 -10
l270 0 11 58 c6 31 13 69 16 85 8 39 -16 35 -43 -8 -36 -54 -73 -68 -200 -73
l-113 -5 0 152 0 151 96 0 97 0 33 -35 c18 -19 35 -35 38 -35 3 0 6 52 6 115
0 63 -4 115 -8 115 -4 0 -14 -16 -21 -35 -7 -19 -20 -39 -30 -44 -14 -8 -124
-15 -193 -12 -16 1 -18 15 -18 146 l0 145 108 0 c122 0 146 -9 181 -63 31 -47
56 -50 47 -6 -3 17 -6 56 -6 85 l0 54 -270 0 c-210 0 -270 -3 -270 -12z"/>
<path d="M5090 4136 c0 -8 13 -22 29 -30 16 -9 31 -23 35 -31 11 -29 7 -635
-5 -656 -5 -11 -21 -24 -35 -29 -55 -21 -22 -30 116 -30 77 0 140 4 140 9 0 5
-16 18 -35 30 l-35 20 0 141 0 140 28 -6 c15 -4 28 -8 30 -9 2 -2 49 -74 105
-162 l102 -158 104 -3 c64 -2 102 1 99 7 -1 5 -19 20 -38 33 -31 21 -61 59
-200 254 -46 65 -46 61 -7 78 19 8 53 31 76 51 48 44 66 97 56 169 -11 86 -44
129 -130 167 -45 21 -70 23 -242 27 -172 4 -193 3 -193 -12z m352 -74 c40 -23
62 -76 62 -147 1 -101 -44 -150 -150 -164 l-54 -8 0 168 0 168 33 4 c42 4 76
-2 109 -21z"/>
<path d="M6028 4143 c-26 -7 -22 -17 12 -30 17 -6 34 -23 40 -38 6 -15 10
-147 10 -323 0 -320 -3 -336 -53 -360 -52 -25 -28 -32 118 -32 80 0 145 3 145
8 -1 4 -15 16 -32 27 -18 11 -35 31 -39 45 -4 14 -7 155 -8 313 -1 317 4 350
54 363 14 3 24 11 22 18 -4 11 -233 19 -269 9z"/>
<path d="M7663 4137 c-4 -6 -1 -13 6 -15 7 -2 24 -14 39 -27 l27 -23 3 -312
c3 -340 2 -349 -54 -370 -55 -21 -22 -30 115 -30 137 0 179 10 128 29 -49 19
-57 45 -57 184 l0 128 23 -6 c32 -10 41 -20 110 -131 34 -54 78 -123 97 -151
l35 -53 103 0 c102 0 123 8 80 31 -41 21 -79 63 -154 169 -41 58 -83 117 -94
131 l-19 26 50 24 c94 43 126 103 117 214 -6 77 -44 129 -116 163 -55 26 -64
27 -245 28 -122 1 -190 -2 -194 -9z m340 -69 c64 -25 94 -164 52 -238 -22 -39
-86 -75 -147 -83 l-38 -6 0 169 0 169 28 4 c32 4 66 -1 105 -15z"/>
</g>
</svg>
